<svg width="368" height="368" viewBox="0 0 368 368" fill="none" xmlns="http://www.w3.org/2000/svg">
<path d="M170.742 82.4982C153.478 89.0041 136.206 95.5031 118.934 102.009C115.491 103.306 111.718 104.337 108.412 105.971C98.2848 110.987 99.8223 125.367 111.66 128.427C129.32 132.991 147.792 135.506 165.697 139.016C175.105 140.859 185.066 142.076 194.08 144.756C194.244 144.756 194.41 144.756 194.575 144.763C190.493 122.552 186.417 100.347 182.335 78.1349C178.469 79.5897 174.608 81.0445 170.742 82.4982Z" fill="#2E1E59"/>
<path d="M158.919 208.217C149.589 198.916 134.409 198.916 125.08 208.217C115.743 217.524 115.743 232.657 125.08 241.957C134.409 251.257 149.589 251.257 158.919 241.957C168.255 232.657 168.255 217.524 158.919 208.217Z" fill="#2E1E59"/>
<path d="M339.317 53.1787C341.092 48.5082 343.061 43.8652 344.642 39.1282C348.072 28.8759 340.956 19.5613 329.88 22.6279C320.673 25.1856 311.666 29.4342 302.733 32.8023C269.735 45.226 236.73 57.6497 203.732 70.0814C208.555 96.3629 213.385 122.644 218.215 148.926C244.658 153.756 271.108 158.585 297.55 163.414C311.473 126.672 325.395 89.9212 339.317 53.1787Z" fill="#2E1E59"/>
<path d="M289.472 184.736C267.198 180.675 244.924 176.605 222.649 172.542C225.719 185.998 227.997 199.697 230.664 213.225C233.381 227.004 235.551 241.04 238.844 254.696C240.712 262.456 247.705 268.347 255.957 264.377C260.772 262.055 261.671 258.093 263.432 253.45C272.114 230.544 280.79 207.644 289.472 184.736Z" fill="#2E1E59"/>
<path d="M255.957 264.377C247.705 268.347 240.712 262.456 238.844 254.696C235.551 241.04 233.381 227.01 230.664 213.225C227.997 199.697 225.719 185.998 222.649 172.542C244.924 176.605 267.198 180.675 289.464 184.736C280.79 207.644 272.107 230.544 263.432 253.443C261.671 258.093 260.772 262.055 255.957 264.377ZM218.215 148.933C213.385 122.644 208.562 96.3629 203.732 70.0745C236.73 57.6508 269.735 45.226 302.733 32.8023C311.659 29.4342 320.673 25.1787 329.88 22.6279C340.956 19.5613 348.072 28.8759 344.642 39.1214C343.061 43.8652 341.092 48.5082 339.324 53.1798C325.395 89.9212 311.473 126.664 297.55 163.414C271.108 158.585 244.658 153.756 218.215 148.933ZM194.08 144.748C185.066 142.076 175.112 140.859 165.697 139.009C147.792 135.506 129.32 132.991 111.654 128.42C99.8223 125.367 98.2848 110.987 108.412 105.971C111.718 104.337 115.499 103.306 118.934 102.009C136.206 95.5031 153.478 89.0041 170.749 82.4982C174.609 81.0446 178.475 79.5898 182.335 78.135C186.417 100.34 190.493 122.552 194.575 144.763C194.41 144.756 194.244 144.748 194.08 144.748ZM297.421 227.054C303.056 212.186 308.691 197.318 314.319 182.452C315.109 181.455 315.67 180.316 315.95 179.033C316.015 178.583 316.065 178.138 316.122 177.694C330.455 139.884 344.772 102.081 359.104 64.2783C365.875 46.408 374.887 27.8361 359.694 10.8267C346.174 -4.30604 328.916 -0.974335 312.522 5.20197C268.563 21.7532 224.604 38.3051 180.654 54.8559C160.126 62.5873 139.605 70.3107 119.085 78.0421C104.43 83.5586 87.9923 87.6788 81.4948 103.744C73.4586 123.597 85.4186 145.186 105.932 150.18C113.954 152.136 122.227 153.375 130.326 154.96C144.63 157.76 158.932 160.569 173.236 163.371C182.284 165.148 196.882 165.284 200.232 175.537C200.434 176.654 200.642 177.772 200.843 178.89C200.951 179.363 201.109 179.815 201.281 180.245C207.276 207.014 210.689 234.391 217.144 261.045C224.741 292.42 268.729 297.515 282.04 267.43C287.847 254.303 292.339 240.467 297.421 227.054Z" fill="#ED1C24"/>
<path d="M125.08 241.957C115.743 232.657 115.743 217.524 125.08 208.217C134.409 198.916 149.589 198.916 158.919 208.224C168.255 217.524 168.255 232.657 158.925 241.957C149.589 251.257 134.409 251.257 125.08 241.957ZM172.215 194.968C155.555 178.36 128.444 178.36 111.782 194.968C95.1223 211.577 95.1223 238.604 111.782 255.212C128.444 271.821 155.555 271.821 172.215 255.212C188.876 238.604 188.876 211.577 172.215 194.968Z" fill="#ED1C24"/>
<path d="M74.5373 276.436C33.7847 317.061 11.1435 339.632 6.61594 344.145C-3.64102 354.377 12.2866 370.29 22.5722 360.045C45.2123 337.474 67.8523 314.905 90.4935 292.334C100.757 282.102 84.8229 266.189 74.5373 276.436Z" fill="#2E1E59"/>
<path d="M74.5373 276.436C33.7847 317.061 11.1435 339.632 6.61594 344.145C-3.64102 354.377 12.2866 370.29 22.5722 360.045C45.2123 337.474 67.8523 314.905 90.4935 292.334C100.757 282.102 84.8229 266.189 74.5373 276.436Z" fill="#ED1C24"/>
<path d="M183.859 281.079C161.219 303.648 138.577 326.219 115.937 348.788C105.674 359.02 121.608 374.941 131.887 364.695C138.679 357.924 193.016 303.756 199.808 296.985C210.079 286.753 194.137 270.832 183.859 281.079Z" fill="#2E1E59"/>
<path d="M183.859 281.079C161.219 303.648 138.577 326.219 115.937 348.788C105.674 359.02 121.608 374.941 131.887 364.695C138.679 357.924 193.016 303.756 199.808 296.985C210.079 286.753 194.137 270.832 183.859 281.079Z" fill="#ED1C24"/>
<path d="M71.231 168.809C30.4784 209.435 7.83724 232.005 3.30923 236.519C-6.94727 246.751 8.98034 262.664 19.2659 252.418C26.0578 245.648 80.3954 191.48 87.1873 184.708C97.451 174.476 81.5166 158.563 71.231 168.809Z" fill="#2E1E59"/>
<path d="M71.231 168.809C30.4784 209.435 7.83724 232.005 3.30923 236.519C-6.94727 246.751 8.98034 262.664 19.2659 252.418C26.0578 245.648 80.3954 191.48 87.1873 184.708C97.451 174.476 81.5166 158.563 71.231 168.809Z" fill="#ED1C24"/>
</svg>
